<svg width="491" height="200" xmlns="http://www.w3.org/2000/svg" xmlns:xlink="http://www.w3.org/1999/xlink" overflow="hidden"><defs><clipPath id="clip0"><rect x="338" y="286" width="491" height="200"/></clipPath><clipPath id="clip1"><rect x="339" y="287" width="490" height="199"/></clipPath><clipPath id="clip2"><rect x="339" y="287" width="490" height="199"/></clipPath><clipPath id="clip3"><rect x="339" y="287" width="490" height="199"/></clipPath></defs><g clip-path="url(#clip0)" transform="translate(-338 -286)"><g clip-path="url(#clip1)"><g clip-path="url(#clip2)"><g clip-path="url(#clip3)"><path d="M406.569 6.62101C407.199 6.68256 409.975 7.00036 413.649 7.0061 444.389 9.05493 453.399 14.759 468.921 20.4688 497.151 27.5199 488.874 30.8583 487.986 35.1022 473.271 55.063 462.189 57.1223 443.797 67.2955 415.274 85.8797 409.363 106.952 393.993 126.999 389.855 138.852 380.249 144.266 390.89 174.265 401.087 177.776 402.417 178.654 403.156 181.727 398.722 182.898 393.697 182.606 392.072 182.313 386.456 176.753 390.742 186.118 370.052 152.461 355.125 133.291 338.721 144.998 322.168 160.948 313.006 165.631 305.173 171.631 296.01 176.167 294.237 177.484 292.02 178.508 295.272 181.289 300.296 185.386 305.912 186.703 311.528 187.288 311.528 187.288 325.272 188.459 326.898 188.605 337.982 190.508 346.849 193.141 346.406 195.629 340.346 197.385 333.992 199.287 323.055 197.678 315.37 196.653 310.346 198.117 303.991 197.239 286.848 194.459 253.891 182.167 253.891 182.167 246.206 180.703 237.487 178.508 227.437 174.85 208.668 178.362 193.15 184.801 160.342 177.777 150.883 173.972 147.928 176.167 126.498 161.388 82.3101 126.853 40.3383 125.244 1.17466 160.51 49.501 100.806 95.4629 129.634 141.277 158.754 177.781 176.753 199.358 168.704 222.412 162.851 221.526 74.3197 259.211 25.1519 353.352 32.7613L370.255 27.167C367.398 26.0662 364.673 22.8268 364.083 19.5185 363.56 7.6669 374.897 4.84341 387.112 7.23761 386.798 5.03378 386.864 2.84675 389.588 0.77183 394.943-1.59235 402.635 3.12136 406.569 6.62101" stroke="#000000" stroke-width="0.26884" stroke-linecap="butt" stroke-linejoin="miter" stroke-miterlimit="4" stroke-opacity="1" fill="#1F1A17" fill-rule="evenodd" fill-opacity="1" transform="matrix(1 0 0 1.00293 339.041 287)"/></g></g></g></g></svg>